# xmcd
#
# Track frame offsets:
#	155
#	10365
#	26360
#	39290
#	54037
#	75500
#	89187
#	103892
#	119237
#	134905
#	148940
#	160807
#	173875
#	189065
#	201407
#	223207
#	237462
#
# Disc length: 3345 seconds
#
# Revision: 0
# Processed by: cddbd v1.5.1PL0 Copyright (c) Steve Scherf et al.
# Submitted via: dBpowerAMP V4.0
#
DISCID=fb0d0f11
DTITLE=Will Tura - Feelings of ..... Country
DYEAR=1900
DGENRE=Country
TTITLE0=Hij had alles en ik niets
TTITLE1=Wat vliegt de tijd
TTITLE2=Kom doe de line dance
TTITLE3=Om Half Zeven
TTITLE4=Ons Plaatje Op De Juke-Box
TTITLE5=Aan Wie Zich Ongelukkig Voelt
TTITLE6=Een Kleine Diamant
TTITLE7=T'Goed Nieuws Journaal
TTITLE8=Beloof Me Dat Ik Blijven Mag
TTITLE9=De Deur Staat Altijd Voor Je Open
TTITLE10=Tussen Vier Bekende Muren
TTITLE11=Zing, Zing
TTITLE12=Zoals Een Heldin Uit eEen Oude Coxboy-Film
TTITLE13=Geen Plaats Om Te Parkeren
TTITLE14=De Snaren Van Mijn Gitaar
TTITLE15=Word Gauw Beter Schat
TTITLE16=It's Good To See Somebdoy Happy
EXTD=
EXTT0=
EXTT1=
EXTT2=
EXTT3=
EXTT4=
EXTT5=
EXTT6=
EXTT7=
EXTT8=
EXTT9=
EXTT10=
EXTT11=
EXTT12=
EXTT13=
EXTT14=
EXTT15=
EXTT16=
PLAYORDER=
